<?xml version="1.0" encoding="UTF-8"?>
<svg version="1.1" viewBox="0 0 900 900" width="1280" height="1280" xmlns="http://www.w3.org/2000/svg">
<path transform="translate(0)" d="m0 0h900v900h-900z" fill="#A4FDBA"/>
<path transform="translate(463,89)" d="m0 0h26l19 2 24 5 18 6 16 7 5-2 8-3h8l10 4 10 9 4 5 3 7 1 11-1 1v6l7 8 4 5 8 14 9 19 10 30 4 20 2 17v28l-3 24-4 17-1 5 11 37 3 11 4-1 2-2-1-4-3-6 1-11 8-30 9-26 11-25 2-4-1-4-6-12v-10l4-7 10-6 3-7 5-5 9-3h14l16 3 14 7 8 9 4 8 1 4v13l-2 6v5l2 6 2 13v39l-4 28-4 16-8 20-7 12-8 10-4 4h-9l-8-3-4 1-11 11-7 8-7 7-11 8-7 2-12 1v14l-16 12-4 10-7 22 1 5 12 17 11 17 7 14 1 4-3 6-5 3-4 1h-18l-22-4-6-1-8 16-10 16-8 10-9 10-11 9-15 8-25 8-5 12-9 21-10 19-9 13-9 10-10 9-12 6-8 2h-9l-12-3-12-5-13-10-10-11-8-11-11-19-9-21-5-15-7-3-20-8-11-6-10-8-11-11-14-19-9-17-2-4 1-5h2v-2h2l9 17 24 7 44 10-4-7-8-13-5-12-4-12-1-8-15-8 2-1 4-1-1-2-4-2v-2l5 2 11 6 2-10-7 1v-2l-4-1-6-8-8-18-2-1-3-7-4-4-5-3-4-3-6-2-1-2-7-3-7-4v-2l-7-1-15-9v-2l-9-3-3-4-5-2-1-1v-8l2-7 8 1 13 8 12 6v2l4 1v2l9 2 5 3 4 1v2l8 1 2-17 6 1 14 7v2l5 1 13 5v2l11 2v2l6 1 2 1 13 2 14 4 24 3h67l1-1 21-3 24-6 32-11 22-12 3-1v-2h2v16l9-2 14-6 30-15 2-2h5l1 1 1 20-2 5-11 6-16 8-17 8-5 3-13 5-8 4-11 3-3 3-5 2-7 10-4 6-3 8-7 13-4 3h-3v7l7-1 2-4 15-25 7-9 35-12 18-8 19-10 21-13 3-1v-30l-2-24-3-23-5-22-7-24-5-14-13-10-17-12-2-1 2 10 4 21 1 10v19l-4 18-8 16-11 12-12 9-21 10-19 6-24 5-37 3h-22l-32-2-22-3-25-5-26-9-15-8-14-10-9-8-8-10-8-16-4-14-1-7v-28l3-17 6-20 7-17 4-7h2v-3h2l2-5 9-11 13-13 6-5 1-2-17 7-10 5-5 4-9 11-8 9-14 19-12 20-11 21-9 23-4 10-2 1v-3l-4-1 2-9 6-16 10-21 12-21 11-16 10-13v-4l-7-6-9-14-5-11-3-12v-18l4-13 6-9 9-8 10-5 22-5 9-1h14l2-5 7-8 8-7 13-11 16-11 15-8 20-7 14-3z" fill="#030870"/>
<path transform="translate(663,409)" d="m0 0 3 1 2 5 1 37 8 2-3 2-5 1v14l-16 12-4 10-7 22 1 5 12 17 11 17 7 14 1 4-3 6-5 3-4 1h-18l-22-4-6-1-8 16-10 16-8 10-9 10-11 9-15 8-25 8-5 12-9 21-10 19-9 13-9 10-10 9-12 6-8 2h-9l-12-3-12-5-13-10-10-11-8-11-11-19-9-21-5-15-7-3-20-8-11-6-10-8-11-11-14-19-9-17-2-4 1-5h2v-2h2l9 17 24 7 44 10-4-7-8-13-5-12-4-12-1-8-15-8 2-1 4-1-1-2-4-2v-2l5 2 11 6 2-10-7 1v-2l-4-1-6-8-8-18-2-1-3-7-4-4-5-3-4-3-6-2-1-2-7-3-7-4v-2l-7-1-15-9v-2l-9-3-3-4-5-2-1-1v-8l2-7 8 1 13 8 12 6v2l4 1v2l9 2 5 3 4 1v2l8 1 2-17 6 1 14 7v2l5 1 13 5v2l11 2v2l6 1 2 1 13 2 14 4 24 3h67l1-1 21-3 24-6 32-11 22-12 3-1v-2h2v16l9-2 14-6 30-15 2-2h5l1 1 1 20-2 5-11 6-16 8-17 8-5 3-13 5-8 4-11 3-3 3-5 2-7 10-4 6-3 8-7 13-4 3h-3v7l7-1 2-4 15-25 7-9 35-12 18-8 19-10 21-13 3-1v-30l-1-15v-12z" fill="#0B0C59"/>
<path transform="translate(167,219)" d="m0 0h11l11 2 5 4 4 8v2l6 2 6 5 2 5v11l-6 11-1 3 13 30 11 33 5 19 1 7v10l-2 4v6h3l1-10 4-15 2-3 4 1 1 2 14-35 12-23 13-20 13-17 12-14 4-5 10-7 19-8h3l-2 4-13 12-7 7-9 13h-2v3h-2l-1 4-5 10-8 22-4 17-1 8v28l3 15 5 13 7 12 11 12 14 10 16 9 19 7 13 4 33 6 23 2 19 1h22l37-3 28-6 20-7 19-10 10-8 9-10 8-16 4-18v-19l-3-22-4-16 1-4 12 8 12 9 9 7 10 30 5 21 3 16 3 25 1 15v27l-1 3-16 10-15 9-23 11-21 8-21 7-8 11-10 17-6 9-7 1-1-5 3-3 4-2 9-17 3-7 9-13 2-2 6-1 1-3 13-4 19-8 16-8 17-8 11-6 5-3 1-10-1-14h-5l-3 3-16 8-13 6-16 7h-7v-16h-2v2l-19 11-11 5-34 11-22 5-16 2-1 1h-67l-19-2-9-2-13-4-10-1-8-3v-2l-8-1-3-1v-2l-11-3-7-3v-2l-5-2-11-5-4-1v11l-2 7-8-2v-2l-6-1-9-4-3-1v-2l-4-1v-2l-6-2-18-10-9-3-1 7v8l6 3 4 4 7 3 3 3 11 6 8 3v2l5 2 5 3 5 2v2l7 2 5 4 5 3 5 6v4l3 1 9 20 5 6 4 2 4-1 2 1-2 10-6-2-10-6 1 2 5 3-2 3h-4l14 7 1 1 2 10 6 18 9 16 4 5v3l-9-1-38-9-21-6-5-8-4-8v-2h-2v2l-4 3-2-5-7 1-20 6-11 2h-15l-5-2-3-4v-8l5-15 11-21 12-20 5-8v-7l-6-19-12-9-6-7-16-3-11-9-16-15-9-11-6 1-6 2h-8l-7-6-9-13-8-17-6-18-4-21-2-25v-28l2-17 1-2h2l-3-12v-11l3-10 5-8h2v-2l10-7 11-4z" fill="#0A0F71"/>
<path transform="translate(345,227)" d="m0 0h3l-2 4-13 12-7 7-9 13h-2v3h-2l-1 4-5 10-8 22-4 17-1 8v28l3 15 5 13 7 12 11 12 14 10 16 9 19 7 13 4 33 6 23 2 19 1h22l37-3 28-6 20-7 19-10 10-8 9-10 8-16 4-18v-19l-3-22-4-16 1-4 12 8 12 9 9 7 10 30 5 21 3 16 3 25 1 15v27l-1 3-16 10-15 9-23 11-21 8-21 7-8 11-10 17-6 9-7 1-1-5 3-3 4-2 9-17 3-7 9-13 2-2 6-1 1-3 13-4 19-8 16-8 17-8 11-6 5-3 1-10-1-14h-5l-3 3-16 8-13 6-16 7h-7v-16h-2v2l-19 11-11 5-34 11-22 5-16 2-1 1h-67l-19-2-9-2-13-4-10-1-8-3v-2l-8-1-3-1v-2l-11-3-7-3v-2l-5-2-11-5-4-1v11l-2 7-8-2v-2l-6-1-9-4-3-1v-2l-4-1v-2l-6-2-18-10-9-3-1 7v8l6 3 4 4 7 3 3 3 11 6 8 3v2l5 2 5 3 5 2v2l7 2 5 4 5 3 5 6v4l3 1 9 20 5 6 4 2 4-1 2 1-2 10-6-2-11-7-7-11-10-17-10-7-11-6-21-12v-2l-5-1-19-13-8-7-2-10v-17l2-28 4-25 6-22 7-20 9-20 9-17 13-20 13-17 12-14 4-5 10-7z" fill="#D2D4ED"/>
<path transform="translate(384,236)" d="m0 0h16l10 3 2 1v2l5 1 2 1v2l4 1 2 5 4 2 5 9 8 19 1 8v14l-2 13-2 7 1 2 6 1h13l10-2-1-5-1-12 1-9 1-8 4-12 2-1 4-8 4-3h2v-2h2l1-3h3l1-3h3v-2l12-5 8 2 23 11 18 10 14 9 4 3v2h2l2 7v14l-5 23-5 8-1 4h-2l-2 4-3 4-5 3-4 3h-3l-1 3-5 3-8 1-3 1v2l-8 1-21-3-8-3-7-7v-2l-4-1v-2h-2l-2-7-2 3-7 14-7 5-4 1h-11l-6-3-7-8-2-4-2-12-4-1-3 1v2h-3v3h-3l-1 3-6 2-12 7-11 3-12-1-9-4-17-11-5-5-3-4v-4l-3-1-6-11-1-6-1-8-1-7v-9l2-9 8-16 6-9 3-1 1-2h2v-2h2l1-3h3v-2l16-8z" fill="#044CA5"/>
<path transform="translate(397,503)" d="m0 0h48l35 1 18 2 8 3 6 7 8 14 7 17 1 4v8l-3 9-5 13-3 6h-2l-1 6-5 7-1 4h-2l-2 5-7 9-10 5-4 1h-38l-38-3-11-2v-2h-3v-2l-4-1-6-6v-2l-3-1-9-11-4-5-6-11-5-9-3-11v-15l3-13 3-9 4-11 4-5 5-1z" fill="#06CEFE"/>
<path transform="translate(457,96)" d="m0 0h35l9 1 15 5 2 1v2l4 1 11 7 7 7 8 7 2 5 3 1 8 13 6 15 1 12v13l-2 13-6 16-6 11-4 5-2 7-4-2-11-9-5-4-1-2-7-4-14-9v-2l-5-1-5-3v-2l-5-1-2-1v-2l-5-1-2-1v-2l-10-3v-2l-8-2v-2l-7-1v-2l-10-2-2-1v-2h-6l-18-6-23-7-27-6-10-1-9-2 1-5 7-7 8-7 13-11 11-7 16-9 18-6 9-2z" fill="#049BDC"/>
<path transform="translate(247,436)" d="m0 0 8 1 13 8 12 6v2l4 1v2l9 2 5 3 4 1v2l8 1 2-17 6 1 14 7v2l5 1 13 5v2l11 2v2l6 1 2 1 13 2 14 4 24 3h67l1-1 21-3 24-6 32-11 22-12 3-1v-2h2v16l9-2 14-6 30-15 2-2h5l1 1 1 20-2 5-11 6-16 8-17 8-5 3-13 5-8 4-11 3-3 3-5 2-7 10-4 6-3 8-7 13-4 3h-3v6l-2-1-4-13-7-16-7-11-5-6-8-3-14-2-17-1-52-1-42 1-14 2-4 5-5 12-4 15-7 2-1-2-4-1-6-8-8-18-2-1-3-7-4-4-5-3-4-3-6-2-1-2-7-3-7-4v-2l-7-1-15-9v-2l-9-3-3-4-5-2-1-1v-8z" fill="#9496C7"/>
<path transform="translate(325,159)" d="m0 0h23l28 4 31 7 26 8 5 2 8 2 21 9 22 13 13 8 16 11 10 8 14 11 12 11 8 8 4 5 5 5 4 5-1 3-17-11-12-7-19-10-27-12-23-9-26-8-21-5-9-2-10-1h-28l-34 5-30 13-16 10-3 2h-5l-10-15-6-13-1-3v-17l3-12 6-9 7-6 10-5 16-4z" fill="#3B3D7C"/>
<path transform="translate(536,106)" d="m0 0 7 1 23 10 8 5 11 7 10 9 9 8 9 11v2l3 1 4 6 5 7 10 20 1 7h2l6 18 5 22 2 16v39l-3 21-3 8-5-1-7-6-11-8-7-6-6-3-12-9-5-5-9-11-11-13-5-5v-2h-2v-2h-2v-2l-4-2-6-7 2-6 7-10 7-16 3-9 1-11v-21l-2-12-5-13-6-11-10-14v-2h-2l-4-4-8-6z" fill="#505384"/>
<path transform="translate(195,275)" d="m0 0 4 1 7 15 8 20 3 8 10 33 2 8v9l-8 10-5 5-11 10-15 10-12 6-13 5h-5l-3-3v-2h-2l-9-14-8-18-5-18-3-18-1-11v-37l1-10 2-3 14 1h17l21-3z" fill="#D3D5ED"/>
<path transform="translate(703,276)" d="m0 0 8 1 12 3 20 2 27-1 2 2 1 16v27l-2 22-3 16-7 21-8 16-10 13-1 1h-6l-12-5-15-8-11-8-10-9-6-5-7-9-2-4 1-10 7-26 7-21 13-30z" fill="#D3D5ED"/>
<path transform="translate(721,219)" d="m0 0h14l16 3 14 7 8 9 4 8 1 4v13l-2 6v5l2 6 2 13v39l-4 28-4 16-8 20-7 12-8 10-4 4h-9l-8-3-4 1-11 11-7 8-7 7-11 8-7 2h-7l1-2-7-2-1-37-2-5-3 1-2 3-3-23-5-22-7-24v-6l2-3 4 2 10 33 3 11 4-1 2-2-1-4-3-6 1-11 8-30 9-26 11-25 2-4-1-4-6-12v-10l4-7 10-6 3-7 5-5zm-18 57-7 15-11 27-8 27-4 16v6l5 8 8 9 11 9 9 7 14 8 11 5 5 2h6l9-11 6-10 6-15 5-15 3-16 2-22v-27l-1-16-2-2-27 1-20-2-15-4z" fill="#090E71"/>
<path transform="translate(442,787)" d="m0 0 77 1 52 3 35 3 25 4 3 2-2 4-15 4-18 3-44 3-25 1h-146l-32-1-45-4-27-4-9-2-1-4 4-2 37-5 31-3 39-2z" fill="#84D0AF"/>
<path transform="translate(457,96)" d="m0 0h35l9 1 15 5 2 1v2l4 1 11 7 7 7 8 7 2 5 3 1 8 13 6 15 1 12v13l-2 13-6 16-6 11-4 5-1 4-5-1-1-1v-5l5-6 3-5 2-7 5-15 1-7v-16l-2-11-7-16-7-11-8-8-9-7-5-1-3 10-7 9-10 9-13 8-8 5-15 2h-20l-21-6-10-4-10-9-10-14-1-2-6 2-5 4-6 4h-2v2l-4 2-1 2h-8l3-5 11-9 8-6 10-7 20-10 17-5 17-3z" fill="#06CEFE"/>
<path transform="translate(378,654)" d="m0 0h13l15 3 25 2h55l33-3-1 6-10 23-11 21-11 14-15 15-11 4-8 1-10-2-12-5-14-11-9-11-7-9-5-9-6-10-5-12-6-16z" fill="#BF937C"/>
<path transform="translate(305,595)" d="m0 0 11 2 25 6 37 8 11 11 9 3 18 2 42 2h23l13-3 11-8 3-2 35-5 24-5 19-5 4-2 4 1-9 14-11 12-15 10-20 8-16 4-28 4-12 1h-51l-30-3-17-3-23-6-16-7-11-6-10-8-12-12-8-11z" fill="#9496C7"/>
<path transform="translate(167,219)" d="m0 0h11l11 2 5 4 4 8v2l6 2 6 5 2 5v11l-6 11-1 3 13 30 11 33 5 19 1 7v10l-2 4v6h3v-5h2v9l-3 4-3-3-7-1-5 5h-2v2l-8 6h-2l-1 3-10 7-3 1v2l-7 3-3 1 3 5 5 4v2l3 1 2 3 6 1-4 4-5-1-4-2-5-5-7-8-6 1-6 2h-8l-7-6-9-13-8-17-6-18-4-21-2-25v-28l2-17 1-2h2l-3-12v-11l3-10 5-8h2v-2l10-7 11-4zm28 56-11 4-21 3h-17l-14-1-2 3-1 10v37l3 24 5 20 8 19 8 13 2 3h2l2 4 1 1 8-1 19-8 15-10 11-9 6-5 10-13v-9l-10-35-4-13-4-8-5-13-8-16z" fill="#0B1071"/>
<path transform="translate(638,491)" d="m0 0h3l-3 14-13 36-12 27-9 17-6 5-16 6-28 7-18 3-15 2-8 1 2-5 9-19 8-21 3-7 10-1 4-6 17-26 4-6 32-11 19-8z" fill="#D2D4ED"/>
<path transform="translate(386,253)" d="m0 0 13 1 5 3 6 2 3 4v2l4 2 5 5v2h2l2 6 2 9v9l-3 15-2 7h-2l-1 5-3 5-9 6-11 6h-12l-11-1-10-4v-3l-4-1v-2h-2l-3-4v-2h-2l-4-8-1-16v-10l3-6 3-12 4-2v-2h3l2-5 1-2 5-3h3v-2l10-3z" fill="#0961B2"/>
<path transform="translate(663,409)" d="m0 0 3 1 2 5 1 37 8 2-3 2-5 1v14l-16 12-4 10-7 22 1 5 12 17 11 17 7 14 1 4-3 6-5 3-4 1h-18l-22-4-6-1-8 16-10 16-8 10-9 10-11 9-15 8-25 8-5 2-2 4-5 2 1-6-11 2-7 1h-8l-2-4-6 1h-35l-23-2-5-1v-1h61l28-3 20-4 16-5 12-5 12-8 10-9 7-10 5-8-5 1-13 4-21 5-11 2h-19l-1-2h5v-2l8-3 27-5 23-6 14-6 6-8 12-25 10-25 10-29 3-10-16 7-13 6-11 3-9 3-13 2-1-2 2-3 21-7 18-8 19-10 21-13 3-1v-30l-1-15v-12z" fill="#0D1172"/>
<path transform="translate(520,263)" d="m0 0 15 3v2l5 2 7 4v2l7 2 5 5 4 18-1 14-3 11-2 5h-2l-1 4-7 8-6 4h-2l-1 3h-5l-5 2-14-1h-5l-11-7-10-8-4-10-1-25 6-14 1-2h2l2-5 4-6 8-6 10-3z" fill="#0961B2"/>
<path transform="translate(563,136)" d="m0 0 3 3 2 6h2l4 13 2 9v39h3l8 11 8 10 1 3 6 2 12 5 11 4 16 4 2 15 1 38v8l-3 4h-2l2 9 1 2 3 1v2l-5-1-7-6-11-8-7-6-6-3-12-9-5-5-9-11-11-13-5-5v-2h-2v-2h-2v-2l-4-2-6-7 2-6 7-10 7-16 3-9 1-11v-21l-2-12-5-13-3-6z" fill="#3B3D7C"/>
<path transform="translate(258,480)" d="m0 0 14 7 15 9 17 10 7 7 5 9 8 14 7 6 14 7 1 1 2 10 6 18 9 16 4 5v3l-9-1-38-9-21-6-5-8-12-25-4-10-9-25-11-36z" fill="#D2D4ED"/>
<path transform="translate(384,236)" d="m0 0h16l10 3 2 1v2l5 1 2 1v2l4 1 2 5 4 2 5 9 8 19 1 8v14l-2 13-2 7v2l-6 1-1 2-1 11-7 1v2h-3v3h-3l-1 3-6 2-12 7-11 3-12-1-9-4-17-11-5-5-3-4v-4l-3-1-6-11-1-6-1-8-1-7v-9l2-9 8-16 6-9 3-1 1-2h2v-2h2l1-3h3v-2l16-8zm2 17-11 3-3 1v2l-4 1-4 2-3 5v2h-3v2l-4 2-4 15-2 5v16l2 10 3 6h2l3 6h2v2l4 1v3l10 4 11 1h12l11-6 10-7 3-6v-3h2l3-10 2-16v-8l-3-7-1-5h-2v-2l-5-5-4-2-2-4-3-3-7-3-10-2z" fill="#053898"/>
<path transform="translate(686,298)" d="m0 0h3l1 4-5 14-2 12-6 21-3 12v6l5 8 7 8 11 9 9 7 14 8 11 5 5 2h6l8-10 6-10 6-15 5-15 3-16 2-22h1l1 12h3l2-3-1 13-4 21-6 18-8 16-9 13-6 6h-9l-8-3-4 1-11 11-7 8-7 7-11 8-7 2h-7l1-2-7-2-1-37-2-5-3 1-2 3-3-23-5-22-7-24v-6l2-3 4 2 10 33 3 11 4-1 2-2-1-4-3-6 1-11 8-30 9-26z" fill="#0D1273"/>
<path transform="translate(137,294)" d="m0 0 6 1 2 2 7 28 9 27 6 11 5 7 5 3h11l10-3 11-7 8-8 6-3 3-3 3 11v9l-8 10-5 5-11 10-15 10-12 6-13 5h-5l-3-3v-2h-2l-9-14-8-18-5-18v-32l2-31z" fill="#9496C7"/>
<path transform="translate(763,295)" d="m0 0 3 2 2 4 1 14 1 35-1 10-5 16-5 13-6 12-10 13-1 1h-6l-12-5-15-8-11-8-10-9-6-5-7-9-2-4 1-10 3-12h1l1 7 14 11 9 6 10 4h12l5-2v-2l5-5 6-9 9-25 4-14 4-17 1-2z" fill="#9496C7"/>
<path transform="translate(419,495)" d="m0 0 52 1 27 2 10 3 6 5 10 16 7 16 3 11 1 1h7l2-4 15-25 7-9 11-4h2v3l13-2 11-4 3 1-18 7-18 6-10 16-10 15-5 7-10 1-8 22-11 24-3 5 13-3h8l-4 2h-2v2l-4 1 13 1v1l-29 4-14 10-7 1v-2l5-1v-2l-2-2 5-3h2l2-4 6-8 1-2h2l1-5 4-6 2-6h2l2-6 5-13 3-9v-8l-4-12-7-15-8-12-6-4-10-2-12-1-35-1h-48l-25 1-6 2-5 10-3 12-2 5-2 9v15l3 11 9 16 6 9 9 11 3 3-2 1-6-3-4-4-4 2-1 2v-2l-9-1-3-3 12 2-4-7-8-13-5-12-4-12-1-8-15-8 2-1 4-1-1-2-4-2v-2l5 2 11 6 4-20 6-16 4-6 2-2 14-2z" fill="#0E1474"/>
<path transform="translate(514,560)" d="m0 0h2l1 4-2 9-5 11-3 8h-2l-2 6-5 9-4 5-5 4h-2v4h5l-2 2-7 2h-38l-38-3-7-1 3-2-10-9-8-7-8-10-10-17-3-6v-6l4-1 9 11 7 8 11 8 11 5 11 3 10 1h30l16-3 11-4 9-6 3-3h2l2-4 8-9z" fill="#049ADC"/>
<path transform="translate(325,159)" d="m0 0h23l28 4 31 7 26 8 5 2 8 2 21 9 22 13 13 8 16 11 10 8 3 2-1 4h-3l-4-2-5-5-1-3-3 1-1-3-4-2-3-1-1-2-9-4-4-4h-3v-2l-4 1-9-3-9-4v-2l-5-1-12-6-8-1-5-3-7-2-7-3-8-2-9-3-8-2-16-3-13-3-5-1-5 1-15-2-17-1-4 1-5 1-10 4h-3l-1 2-3 2-2 4-3 3-3 7-2 9v16l3 7 4 7 1 6-1 2h-2v-2h-5l-7-10-6-13-1-3v-17l3-12 6-9 7-6 10-5 16-4z" fill="#505284"/>
<path transform="translate(243,353)" d="m0 0 4 1 2 4-6 23-4 30-1 19v17l2 10 4 5-6-2-5-3h-3l-16-3-11-9-13-12v-2l4 2 5 1 3-2-6-2-7-8-5-5v-2l6-4h4v-2l13-9 5-5 4-3h2v-2l4-2 3-4 7 1 1 3 3-1 1-2v-14l4-15z" fill="#0B1374"/>
<path transform="translate(378,654)" d="m0 0h13l8 2-4 1-3-1 4 11 12 23 9 13 1 3 3 1 6 7 11 7 9 3h12l10-5 9-8 8-11 9-16 11-23 2-4 11-1-1 6-10 23-11 21-11 14-15 15-11 4-8 1-10-2-12-5-14-11-9-11-7-9-5-9-6-10-5-12-6-16z" fill="#9E6071"/>
<path transform="translate(385,244)" d="m0 0h9l6 2 12 3 3 2v2h2v2l4 2 5 7v4l3 1v2h2l5 19v10l-2 14-4 8-3 1 1 3-3 5-7 4-5 5-6 4-4 3-9 3-10 2-10-1-7-3-11-8-6-9-4-4-5-8v-8l-1-2v-25l3-10 7-10 5-2 1-4h3v-2l5-2 5-4 8-4zm1 9-11 3-3 1v2l-4 1-4 2-3 5v2h-3v2l-4 2-4 15-2 5v16l2 10 3 6h2l3 6h2v2l4 1v3l10 4 11 1h12l11-6 10-7 3-6v-3h2l3-10 2-16v-8l-3-7-1-5h-2v-2l-5-5-4-2-2-4-3-3-7-3-10-2z" fill="#044BA5"/>
<path transform="translate(173,226)" d="m0 0h7l8 3 3 7-1 3-12 4-5 4-5 7-8-1-8-2-9-2 2 6 4 3 9 2 13 2 6 3h10l3-1-1-2-12-4-1-4 4-4 9-5 7-2h5l4 5v10l-3 6-5 4-14 5-14 3-11 1h-13l-11-8-3-7v-11l6-12 7-6 8-4z" fill="#3B3D7C"/>
<path transform="translate(720,227)" d="m0 0h18l16 4 9 6 5 6 2 4 1 13-3 9-9 7-8 1-15-1h-6l-5-2-12-3v-2l-6-1-8-6-3-8 1-7 5-4 11 2 8 3 6 5-1 4-12 4-1 3 12 1 6-4 20-2 8-3v-5l-11 1h-11l-5-2-3-2v-2l-4-2-11-5v-2l-3-1 2-5 4-3z" fill="#3B3D7C"/>
<path transform="translate(305,595)" d="m0 0 11 2 20 5v2h3v2l2 1-4 1-1 2h-8l-1 5 4 2 12 9 17 9 13 4 22 4 21 3 31 2 10 1 28-2 26-4 9-2h8v-2l18-6h5l1-3 6-1 1-3h3l2-4 3-1 2-9 5-3 4-4 6-2 6-4 4 1-9 14-11 12-15 10-20 8-16 4-28 4-12 1h-51l-30-3-17-3-23-6-16-7-11-6-10-8-12-12-8-11z" fill="#CBCEE9"/>
<path transform="translate(387,265)" d="m0 0h11l5 6 4 8 1 5v19l-4 12-5 8-5 5-6 3-5-1-5-4-5-8-2-7v-17l4-15 5-8z" fill="#06CEFE"/>
<path transform="translate(523,274)" d="m0 0 6 1 9 7 4 10v23l-5 12-3 5-4 6-5 3h-6l-6-4-5-8-3-10v-13l4-16 9-12z" fill="#06CEFE"/>
<path transform="translate(258,509)" d="m0 0h3l4 13 9 26 3 7 1 1v6l-22 6-11 2h-17v-6l5-13 10-19 11-18z" fill="#505384"/>
<path transform="translate(195,275)" d="m0 0 4 1 7 15 8 20 2 4v8h-5l-11-16-5-5h-23l-8 1v-2l-12 4-4-1-3-10-6-3-6-2-2-2v-5l5-1 10 1h17l21-3z" fill="#F1F3FA"/>
<path transform="translate(703,276)" d="m0 0 8 1 12 3 20 2 25 1 3 2v2l-5 3-10 1-2 5-2 10-1 1h-5l-6-2-16-2-13 2-8 4-7 6-4-1-2-5 2-9 9-20z" fill="#F2F4FB"/>
<path transform="translate(137,294)" d="m0 0 6 1 2 2 7 28 9 27 6 11 5 7 5 3h16l-3 2h-16l-5-4-6-8-5-10-5-5-4 6-1 12 1 10-1 7v3l2 1 3 11 2 4v3h2v4l-4-2-8-13-8-19-4-15v-32l2-31z" fill="#A8AAD1"/>
<path transform="translate(432,328)" d="m0 0h46l1 3v10l-4 12-6 10-6 4-4 1h-11l-6-3-7-8-2-4-2-12v-12z" fill="#05CCFD"/>
<path transform="translate(327,169)" d="m0 0 25 2 10 1 4-1 6 2 20 4 12 2 9 3 8 3 5 1 9 4 4 1 4 2 7 1 14 7 3 1 1 2 8 3 11 3h2v2l3-1 5 5 9 4 7 5 2 2h2l5 5 1 3 6 2 3-3 11 9 10 9 9 9 4 5 5 5 4 5-1 3-17-11-4-2-10-10-3-5-6-5-3-1-2-3-4-1-4-4-7-6-12-6-8-6-4-1v-2l-4-1-7-3-14-7-10-3-12-5-4-2-12-3-6-3-6-2-12-2-7-2-22-5-7-1-6-2h-29l-4-1-11 2-7 3-6 2-8 9-1 11-1 5-1 4 2 9v4h2v2h2l5 10 2 3-5 5-7 1-3-5h5v2h2l-2-10-5-8-1-8v-15l2-6 5-10 2-1 2-4h2l1-2 4-1 1-2 9-3 5-1z" fill="#464781"/>
<path transform="translate(416,97)" d="m0 0h2l-1 4-1 2 3 1-13 5-10 6-9 5-13 10-10 8-11 11-1 4h7l2 1 15 2 29 7 32 10 8 2v2l12 3v2l7 1v2l8 2v2l4 1v2l5 2 6 6v2l-5-1-15-9-23-10-9-2-21-7-24-6-26-5-16-2-20-1v-1l16-1-1-2 1-3h-14v-1h14l2-5 7-8 8-7 13-11 16-11 15-8z" fill="#090E72"/>
<path transform="translate(526,654)" d="m0 0h2l-1 7-10 24-11 21-9 13-9 10-10 9-12 6-8 2h-9l-12-3-12-5-13-10-10-11-8-11-11-19-4-9v-2h5v5l4 3v7l5 2 6 5 5 8 9 11 5 6 12 9 15 6 10 1 9-3 7-1 1-3 8-7 7-7 10-14 13-25 7-17 6-2 2-5z" fill="#0C1172"/>
<path transform="translate(763,295)" d="m0 0 3 2 2 4 1 14 1 35-1 10-5 16-5 13-6 12-6 8-3-1 4-9 5-10 2-9h2l-1-4 2-6 1-16-4-1v2h-4v-2l-7 2-6 11-9 8h-5l3-3h2v-2l5-5 6-9 9-25 4-14 4-17 1-2z" fill="#A8AAD1"/>
<path transform="translate(417,673)" d="m0 0 22 3 9-1 5 1h16l8-1 4 2-1 6-3 6-7 9h-2l-2 4-5 4-7 3-8-1-8-5-5-5-7-8v-2h-2l-8-11-1-3z" fill="#D1B08D"/>
<path transform="translate(345,227)" d="m0 0h3l-2 4-13 12-7 7-9 13h-2v3h-2l-1 4-5 10-8 22-4 13-3 7-4-2-1-14-2-4-3-2-2-7 3-5 2-7 14-19 13-15 4-5 10-7z" fill="#F0F1F9"/>
<path transform="translate(526,270)" d="m0 0h5l8 6v2l3 1 2 4v3h2l4 5 3 5 1 13-1 5-3 11h-2l-1 6-4 1-2 4-4 1-3 1-5 5-3 1-12-2-7-3v-2l-5-2v-2l-4-2-2-2-3-12v-10l3-11 7-14 11-6zm-3 4-7 6-7 10-4 16v13l3 10 5 8 6 4h6l5-3 4-6 7-14 1-3v-23l-4-10-9-7z" fill="#0684D0"/>
<path transform="translate(318,613)" d="m0 0 7 6 10 8 19 10 18 6 22 5 25 3 8 2 23 2h41l2 4-7 1h-55l-32-3-8-2h-12l7 19 8 16 2 3-1 3-5-4-3-3 1-5-4-2-1-5-5-1-8-21-2-5-22-8-15-8-10-8-4-5h2l-2-5z" fill="#0C106F"/>
<path transform="translate(392,260)" d="m0 0 11 4 6 6 5 11v2h2l2 3v15l-4 13-4 4h-3l-1 4-9 9-4 2h-12l-10-6-7-8-3-2-3-7-1-7 1-3 1-12 4-9 4-7 6-3 3-1v-2l6-4zm-5 5-8 7-5 10-3 12v17l3 9 6 8 4 3 7-1 6-4 6-9 4-11 1-3v-19l-3-9-5-8-2-2z" fill="#0683CF"/>
<path transform="translate(232,350)" d="m0 0 2 4 1 7v10l-2 4v6h3v-5h2v9l-3 4-3-3-7-1-5 5h-2v2l-8 6h-2l-1 3-10 7-3 1v2l-7 3-3 1 3 5 5 4v2l3 1 2 3 6 1-4 4-5-1-4-2-5-5-7-8-6 1-6 2h-8l-7-6-9-13-8-17-4-12 1-2h3v4l4-1 8 19 8 13 1 3h2l3 4 8-1 19-8 15-10 11-9 4-4h2l2-4 7-9v-9l-1-6 3 3h2z" fill="#0A1072"/>
<path transform="translate(564,281)" d="m0 0 5 2 5 4v2h2l2 7v14l-5 23-5 8-1 4h-2l-2 4-3 4-5 3-4 3h-3l-1 3-5 3-8 1-3 1v2l-8 1-21-3-8-3-7-7v-2l-4-1v-2h-2l-2-7-1-4 1-12 2 1 4 15 2 3 6 2 11 7 6 2 18 1 12-4 8-5h2v-2h2v-2h2l2-6 5-4 4-7 4-13 1-16-1-5-2-3-1-8z" fill="#043797"/>
<path transform="translate(636,527)" d="m0 0 4 1 11 15 5 9v2l3 1 8 16-2 1-1 3-2 1h-18l-20-5-4-2 1-5 9-20z" fill="#3B3D7C"/>
<path transform="translate(638,491)" d="m0 0h3l-3 14-13 36-2 2 1-9 1-2h2l1-9 1-2h2v-8l-4-2-3 1h-7l-36 12-7 4-2 4-3 3-16 26-5 1h-7l-6 2-3 2 2-8 1-1 10-1 4-6 17-26 4-6 32-11 19-8z" fill="#9597C7"/>
<path transform="translate(522,107)" d="m0 0 5 2 9 7 13 12 1 4 3 1 8 13 6 15 1 12v13l-2 13-6 16-6 11-4 5-1 4-5-1-1-1v-5l5-6 3-5 2-7 5-15 1-7v-16l-2-11-7-16-7-11-8-8-9-7-5-1-3 10-7 9v-3l5-10v-7l5-5 2-1-2-3z" fill="#06B9F1"/>
<path transform="translate(258,480)" d="m0 0 14 7 15 9 17 10 7 7 5 9 8 14 7 6 14 7 1 1 2 10 6 18 9 16 4 5v3l-9-1-4-2 2-1-1-5h-2l1-3h2l-3-5-3-2 1-4-4-9-3-6-5-5-9-6-6-3v-2h-6l-4-9-6-16-3-6-4-4-16-8-14-8-5-4-3-1-1 3-4-13z" fill="#9496C6"/>
<path transform="translate(232,456)" d="m0 0 10 5 5 2 13 9 7 5 4 1v2l6 2 11 7 11 6 13 8 6 9 10 17 3 4 1 3 5 3-2 3-7-1-7-8-6-11-6-10-8-7-11-6-20-12-11-6 5 18v9l-3 3-2-5-1-6-2-1-5-17-3-9-12-9-4-5z" fill="#0D1373"/>
<path transform="translate(674,384)" d="m0 0 7 3 12 11 21 14 4 2v4l-5 5-3 1-2 4-3 3-5-1-8-8-5-2-10-11-7-10v-2h-2l-1-7z" fill="#0491D6"/>
<path transform="translate(225,384)" d="m0 0 5 1 4 5-1 6-3 7-4 4-6 8-4 5-7 5-6 6h-6l-8-9-5-5v-2l6-4h4v-2l13-9 5-5 4-3h2v-2l4-2z" fill="#03A1E2"/>
<path transform="translate(305,595)" d="m0 0 11 2 20 5v2h3v2l2 1-4 1-1 2h-8l-1 5 4 2 12 9 17 9 13 4 22 4 21 3 31 2-4 3 40 1v1h-51l-30-3-17-3-23-6-16-7-11-6-10-8-12-12-8-11z" fill="#C5C7E5"/>
<path transform="translate(633,477)" d="m0 0 1 3 10-2-4 4-17 9-22 10-35 12-8 11-10 17-6 9-7 1-1-5 3-3 4-2 9-17 3-7 9-13 2-2 6-1 1-3 4 1-5 4h3l2-2 9-2 4-3 9-3h3v-2l12-5 8-4 9-4z" fill="#B5B9DF"/>
<path transform="translate(336,603)" d="m0 0 9 1 33 7 3 3v5l-4 2-3 1-4-1v2l-9 2-2 5 4 2v2h2v2l10 2 3 2-10-1-16-7-15-9-10-8v-6h9l4-2-1-3z" fill="#A7A9D1"/>
<path transform="translate(541,103)" d="m0 0h7l1 1 9 1 8 4 5-2 8-3h8l10 4 10 9 4 5 3 7 1 7-2 3-4 2 1-6-3-6 1 2v9h-2l-14-14-10-7-10-5-8-2-4-3-1 2 2 1h-2v2l-9-3-10-5z" fill="#070757"/>
<path transform="translate(173,226)" d="m0 0h7l8 3 3 7-1 3-12 4-7 5-2-2-2-1-4 2-4-1-10-1-7-2-1 8-5 5v5h-3v-10l2-9 6-7 11-6z" fill="#464781"/>
<path transform="translate(264,522)" d="m0 0 2 3 8 23 3 7 1 1v6l-22 6-11 2h-17v-6l1 4h3l1-6 6-3 3-3 8-3 9-6 1-2 6-2-1-11-1-1z" fill="#3B3D7C"/>
<path transform="translate(325,159)" d="m0 0h23l28 4 31 7 26 8 15 6-1 2-6-1-14-5-27-7-11-3-43-6h-25l-16 4-12 7-8 10-2 4-2 21-2 4-2-6v-12l3-12 6-9 7-6 10-5 16-4z" fill="#9C9ECB"/>
<path transform="translate(356,530)" d="m0 0 3 1 1 12 3 5 10 18v3l-5-5v-2l-3 1v6l1 4 2 1 6 12 11 15 11 10 7 6 3 2h-10v-2h-3v-2l-4-1-6-6v-2l-3-1-9-11-4-5-6-11-5-9-3-11v-15z" fill="#06BBF2"/>
<path transform="translate(720,227)" d="m0 0h18l16 4 6 4 4 5 2 6-4-1h-8l-3-1h-4v-2l-6-1-3-2v2l-3 1v3h-2l1 2 5-3 7 4v3h-5l-1-3-8 2-3-2v-2l-4-2-11-5v-2l-3-1 2-5 4-3z" fill="#464781"/>
<path transform="translate(507,252)" d="m0 0 8 2 5 2v1l-8 1-11 5-2 3-5 3h-2l-2 4-3 5-5 5-4 8-2 15v17l1 4h-11l3-3-2-16 1-9 1-8 4-12 2-1 4-8 4-3h2v-2h2l1-3h3l1-3h3v-2z" fill="#053898"/>
<path transform="translate(379,676)" d="m0 0h5v5l4 3v7l5 2 6 5 5 8 9 11 5 6 12 9 15 6 10 1 9-3 3 1-7 4v2l3 2-5 1h-9l-12-3-12-5-13-10-10-11-8-11-11-19-4-9z" fill="#0D1372"/>
<path transform="translate(523,539)" d="m0 0 2 3 3 9v8l-3 9-5 13-3 6h-2l-1 6-5 7-1 4h-2l-2 5-7 9-3 2-7 1-1-3 10-10 3-4 6-12h2l1-6 4-9 3-9 1-8-5 4 5-15 5-6h2z" fill="#06B8F1"/>
<path transform="translate(560,108)" d="m0 0 6 4 7 2 14 7 13 12 6 5v2h2l-1-9v-3l3 4 1 7h-2v2l5-4 1 3-1 1v9l1 4 2 1 4 7 2 4h2l1 3 2 2 3 6 3 3-1 4 3 1 1 9-2 1-4-7-2-5-7-13-6-8-9-11-6-7-8-7-9-8-17-10-8-4v-6z" fill="#080855"/>
<path transform="translate(583,602)" d="m0 0 2 1-2 2-7 2-5 5h-2v5l-2 4-5 5-3 1-3 3-4 1-1 2-11 3-10 3h-2v2l-17 3-5 1h-9l3-2 7-1 18-4 16-5h2v-2h2v-3l2-1-1-4-7-2h-6v-3h-2v-2l-4 2-2-2 2-1 17-1 11-4 12-2v-2z" fill="#A7A9D0"/>
<path transform="translate(533,571)" d="m0 0 5 1v19l9 4 2 5 3 2-4 2-27 4-8 1 2-5 9-19 2-4 3-2 2-6z" fill="#EFF1F9"/>
<path transform="translate(668,409)" d="m0 0 4 2 9 10 5 6 11 9-3 5-11 7-7 2-6-1-2-28z" fill="#9698C8"/>
<path transform="translate(392,260)" d="m0 0 8 3-4 1h-10l-6 4-7 13-1 5h-2l-1 13-1 6 3 7 3 9 4 6 5 4 7 1v1h-9l-10-6-7-8-3-2-3-7-1-7 1-3 1-12 4-9 4-7 6-3 3-1v-2l6-4z" fill="#0782CF"/>
<path transform="translate(536,106)" d="m0 0 7 1 23 10 8 5 11 7 10 9 9 8 9 11v2l3 1 4 6 5 7 10 20 2 10-3-3-7-14-13-21-9-10-5-5-11-10-11-8-11-7-7-4-9-1-1-3h-2l-4-4-8-6z" fill="#A2A4CE"/>
<path transform="translate(520,273)" d="m0 0 2 1-6 5-8 12-3 9-1 6v11l5 15 4 6 5 4-5-1-6-2v-2l-5-2v-2l-4-2-2-2-3-12v-10l3-11 7-14 11-6z" fill="#0782CF"/>
<path transform="translate(394,617)" d="m0 0h2v2l36 3 13 1h38l9-1v4h-5v3l-6 1h-23l-42-2-23-3-6-4-1-2 4 2 7 2-3-4z" fill="#0B0C5B"/>
<path transform="translate(201,272)" d="m0 0 5 2 13 31 10 30 3 11v11l-3 1-5-12-9-31-5-11-5-13-5-11v-6z" fill="#0B0B58"/>
<path transform="translate(288,477)" d="m0 0 5 2 7 3v2l7 2 5 4 5 3 5 6v4l3 1 9 20 5 6 4 2 4-1 2 1-2 10-6-2-11-7-7-11-10-17-1-2 4 2v2h2l-2-9h-2l-3-3v-2l-3 1-1-2-5-2-5-5-5-4z" fill="#B6BADF"/>
<path transform="translate(264,496)" d="m0 0 5 1 4 4v2l4 2v2h2l2 13 4 19 5 14v3h2l-1 6-4-4-3-1-4-9-9-24-6-19z" fill="#EEF0F9"/>
<path transform="translate(618,238)" d="m0 0 10 2 15 4v2l3-1 2 20h-2l3 6 1-15h1v39l-3 21-2 6-5-1-2-5v-6h2l1-5 1-1v-18l-1-26-1-15-11-2-10-3z" fill="#464781"/>
<path transform="translate(258,480)" d="m0 0 14 7 15 9 17 10 4 4v6l2 3v5h3l5 9 1 14 2 1-4-1-12-30-4-4-16-8-14-8-5-4-3-1-1 3-4-13z" fill="#A5A7D0"/>
<path transform="translate(392,162)" d="m0 0h5l7 2v2l9 1 12 2 14 5 6 1v2l12 3v2l7 1v2l8 2v2l4 1v2l5 2 6 6v2l-5-1-15-9-23-10-9-2-21-7-24-6-1-3h3z" fill="#080959"/>
<path transform="translate(137,294)" d="m0 0 6 1 2 2 3 12-1 4-1-6h-2l-1 3v-2l-4 3-1 3v8h-2v24l1 9 2 1 1 9v5l2 1 2 9 11 22v3h2v4l-4-2-8-13-8-19-4-15v-32l2-31z" fill="#B9BDE1"/>
<path transform="translate(228,415)" d="m0 0h3v35l-2 1-9-2-9-6-5-4 1-4 11-8 9-11z" fill="#989AC9"/>
<path transform="translate(386,651)" d="m0 0h6l3 2 5-2h19l8 2 23 2h41l2 4-7 1h-55l-32-3-8-2-6-1z" fill="#030351"/>
<path transform="translate(514,560)" d="m0 0h2l1 4-2 9-5 11-3 8h-2l-2 6-5 9-4 5-5 4h-2v4h5l-2 2-3 1h-17l-1-3 1-2 11-4 5-3h3v-2l5-3 1-2h2l2-5h2l3-9 3-6v-5l-9 6-6 5-10 5-10 3h-8v-1l16-4 11-6 5-5h2l2-4 8-9z" fill="#03A9E7"/>
<path transform="translate(763,295)" d="m0 0 3 2 2 4 1 14 1 35-1 10-5 16-5 13-5 10h-2l1-7 4-9 6-20 3-13 1-13-1-17-2-2v-7h-6l-4 8-1-3 4-17 1-2z" fill="#B9BDE2"/>
<path transform="translate(674,384)" d="m0 0 5 2 5 6v3l4 1 2 4v6l-1 2 8-2 2 4-4 6-5 2-3-1 2-7h-11l-8-11v-2h-2l-1-7z" fill="#06B9F1"/>
<path transform="translate(457,96)" d="m0 0h35l9 1 10 3-1 2h-6l-2-1h-16l-6-1h-8l-15 3-25 1-14 4-13 5-5 1-4 1 4-4 13-6 17-5 17-3z" fill="#06A4E3"/>
<path transform="translate(379,646)" d="m0 0 11 1 20 3v1l-10 1-6 2-4-2h-4l-1 2-6 1 7 19 8 16 2 3-1 3-5-4-3-3 1-5-4-2-1-5-5-1-8-21-2-6 8-2z" fill="#0D1172"/>
<path transform="translate(591,592)" d="m0 0 6 1-1 3-3 2-9 2-9 3-7 1-1 3-24 5h-19l-1-2h5v-2l8-3 27-5 23-6z" fill="#0C0C59"/>
<path transform="translate(225,384)" d="m0 0 5 1 4 5-1 6-3 7-4 4-5 7h-2l-2-5h-2l-2 5h-8l-2-2 1-4 5-1 3-5 4-8 4-1 4-5z" fill="#06BEF5"/>
<path transform="translate(173,248)" d="m0 0h8l-2 4h-2v5l12 4 1 3-3 2h-10l-9-4-15-2-7-3-3-3v-5l9 1 8 2 8 1z" fill="#020770"/>
<path transform="translate(364,171)" d="m0 0 18 4 21 4 10 3 8 3 5 1 9 4 4 1 4 2 7 1 14 7 3 1 1 2 4 2-2 1-14-5-11-4-6-3-12-3-6-3-6-2-12-2-7-2-22-5-7-1-6-2 1-3z" fill="#474882"/>
<path transform="translate(603,505)" d="m0 0 3 1-18 7-18 6-10 16-7 11-3-3-5 5-3 2 2-4 15-25 7-9 11-4h2v3l13-2z" fill="#131773"/>
<path transform="translate(686,298)" d="m0 0h3l1 4-5 14-2 12-6 21-3 12-4 1-2-1v-8l9-31 8-22z" fill="#0F0F5D"/>
<path transform="translate(770,278)" d="m0 0h3l4 16 2 5 1 1v32l-3 7h-3-1l-1-40-1-16z" fill="#080D71"/>
<path transform="translate(636,527)" d="m0 0 4 1 11 15 5 9v2l3 1 5 9-1 4-8-5v-3h-3l-4-5-5-5v-3h-2l-2-5-3-1 2-2-2-4z" fill="#4F5284"/>
<path transform="translate(576,112)" d="m0 0h13l9 5 7 7 3 7v9h-2l-14-14-10-7-7-4z" fill="#06B8F1"/>
<path transform="translate(533,125)" d="m0 0 4 2 8 8 8 14 6 15 1 8v16l-2 10-3 11-4 2 1-9 2-3 1-22-2-14-4-15-12-16z" fill="#03A9E7"/>
<path transform="translate(631,502)" d="m0 0h6l-1 8-11 31-2 2 1-9 1-2h2l1-9 1-2h2v-8l-4-2-3 1h-7l-21 7-13 4h-2l1-3 6-1v-2l14-4 11-5 9-2z" fill="#B4B8DE"/>
<path transform="translate(307,502)" d="m0 0 6 2 16 26 3 6 5 3-2 3-7-1-7-8-6-11-7-13-3-4z" fill="#0D0D5A"/>
<path transform="translate(391,125)" d="m0 0 3 1 8 12 8 9h-3l-14-9-4-6-5 2-13 11-2 2h-3l-1 3-9 1-2-2 3-5 4-3 8 1 1-3 4-1v-2l11-7 3-3z" fill="#03A8E6"/>
<path transform="translate(702,243)" d="m0 0 11 2 8 3 6 5-1 4h-7l-4-4-4 2-2-1-1-3-3-1v3l-2 1v4l7 4v2l-5 1-7-5-2-9 2-5z" fill="#525384"/>
<path transform="translate(647,336)" d="m0 0 4 2 10 33 3 11 8-2v6l-2 2h-6l-1-4-4-2-4-8-1-9-2-9-4-2-3-9v-6z" fill="#10105D"/>
<path transform="translate(663,409)" d="m0 0 3 1 2 5 1 37 8 2-3 2-6 3-1 2h-3l-1-21-1-2-1-15v-12z" fill="#070655"/>
<path transform="translate(677,345)" d="m0 0h1l1 7 14 11 9 6 10 4 12 1v2l-2 1h-11l-12-5-11-8-5 1-3 5-6-1-1-2 1-10z" fill="#ABAED5"/>
<path transform="translate(365,562)" d="m0 0h3l7 9-2 4 3 7 5 7v2h2l1 5 8 10 8 5 12 4 4 4v1l-10-1-5-3-14-12-7-8-9-14-7-13v-6z" fill="#03A9E7"/>
<path transform="translate(274,481)" d="m0 0 11 6 21 12 5 4-4 1v3l3 3-1 2-8-7-11-6-20-12-1-2 5-1z" fill="#111573"/>
<path transform="translate(386,263)" d="m0 0h10l5 2 5 8 3 9 1 16-2 11-6 12-1-2 4-9 2-7v-19l-3-9-5-8-1-1h-11l-8 7-5 12-2 9v17l3 9 5 7 4 3 9-1-3 3h-7l-8-7-4-8-3-11-1-2 1-5v-7l2-6h2l1-7 6-11z" fill="#03A0E0"/>
<path transform="translate(196,243)" d="m0 0h5l4 5-1 7-7 4-5-1-1-2h-2l-1 2h-2l1-5h-4l-1 4-5-1v-4l12-7z" fill="#464781"/>
<path transform="translate(635,535)" d="m0 0h2v3l2 1-2 2 4 4v2h2l3 6 6 5v2h3l2 4 6 3 2-1-1 5-9-1-1-5-6-1-6-5v-2l-4-1-3-3-2-4v-7z" fill="#464781"/>
<path transform="translate(562,504)" d="m0 0 1 4-1 3-5 4 1 4 3-1-2 5-15 24-4 4h-5l-1-5 3-3 4-2 9-17 3-7z" fill="#B2B5DC"/>
<path transform="translate(352,152)" d="m0 0h18l15 3 23 5 18 5 12 6v2h4v2l-5-1-25-8-23-6-18-4-10-1-9-2z" fill="#066CBE"/>
<path transform="translate(393,115)" d="m0 0h2l-1 8 5 8 4 6-1 2-8-11-1-2-6 2-5 4-6 4h-2v2l-4 2-1 2h-8l3-5 11-9 8-6z" fill="#06BAF2"/>
<path transform="translate(397,503)" d="m0 0h48l35 1 18 2 8 3 6 7 7 12-2 1-6-10-5-5-10-6-24-1-4-1-91-1v-1z" fill="#A8ABD4"/>
<path transform="translate(324,549)" d="m0 0 7 1 7 4v2l5-1 2 2 3 10h2l5 13 8 14 4 5v3l-9-1-4-2 2-1-1-5h-2l1-3h2l-3-5-3-2 1-4-4-9-3-6-5-5-9-6-6-3z" fill="#B0B4DB"/>
<path transform="translate(647,436)" d="m0 0h5l1 1 1 20-2 5-2-1 1-3v-15l-1-2-6 2-17 9-25 11-5 2h-5l-1-5h8l11-5 18-8 17-9z" fill="#AEB1D7"/>
<path transform="translate(190,431)" d="m0 0 4 2 5 1 5-3 1 5 5 5 8 6 3 2v2l7 1 2 1v2h-13l-7-4-12-11-8-7z" fill="#0A0A58"/>
<path transform="translate(620,491)" d="m0 0 4 1-2 4-6 3-3 1v2l-21 8-13 2-1-2 2-3 21-7 18-8z" fill="#0B0B5A"/>
<path transform="translate(130,372)" d="m0 0h4v4l4-1 8 19 5 9-1 4h-3l-4-2-9-19-4-12z" fill="#0D1272"/>
<path transform="translate(258,509)" d="m0 0h2l-1 4-6 12-7 11-8 16-6 16h-3l1-9 5-12 12-22 10-15z" fill="#B4B6DB"/>
<path transform="translate(261,514)" d="m0 0 2 3 1 3 1 11 2 6-1 6-3 2h-3l-2 4-9 6-9 2-2 4-4 1 1-6 2-4 5-2 2 1v2h3l3-3 1-2 5-2h3l2-13-3-1 1-4h2l-1-4 1-3-1-3z" fill="#464781"/>
<path transform="translate(361,581)" d="m0 0 6 5 4 7 9 10 4 5-2 1-6-3-4-4-4 2-1 2v-2l-9-1-3-3 12 2-4-7-5-8v-4z" fill="#091171"/>
<path transform="translate(522,273)" d="m0 0h8l8 6 5 10 1 9v14l-4 13-6 9-1-2 7-14 1-3v-23l-4-10-8-6-6-1-6 5-7 10-4 16v13l1 8-2-3-2-7v-11l3-12 4-8 8-10z" fill="#03A1E1"/>
<path transform="translate(361,468)" d="m0 0 25 5 12 3 16 2 16 1 8 1h37l-1 2h-54l-19-2-9-2-13-4-10-1-8-3z" fill="#B3B6DC"/>
<path transform="translate(587,446)" d="m0 0 3 1-19 11-11 5-34 11-22 5-16 2-1 1h-12l1-2 25-3 3-1 11-2 17-5 15-4 15-6 16-8z" fill="#B9BDE2"/>
<path transform="translate(137,294)" d="m0 0 6 1 2 2 3 12-1 4-1-6h-2l-1 3v-2l-4 3-1 3v8h-2v4h-2v-18l1-11z" fill="#B8BCE1"/>
<path transform="translate(499,601)" d="m0 0 1 3-6 8-5 4h-2v4h5l-2 2-3 1h-17l-1-3 1-2 11-4 5-3h3v-2l5-3z" fill="#03A7E5"/>
<path transform="translate(291,203)" d="m0 0 3 2-1 5 2 9v4h2v2h2l5 10 2 3-5 5-7 1-3-5h5v2h2l-2-10-5-8-1-8v-11z" fill="#474881"/>
<path transform="translate(191,412)" d="m0 0h3l1 5h3l6 7v6l-1 1h-6l-8-9-5-5v-2z" fill="#03A7E5"/>
<path transform="translate(471,328)" d="m0 0h7l1 3v10l-4 12-6 10-6 4-3-1 5-5 5-7 2-10h-2l1-5 2-3h2l-2-6z" fill="#06B6EF"/>
<path transform="translate(237,401)" d="m0 0h1v13l-1 4-1 32h-4v-40l4-5z" fill="#02014E"/>
<path transform="translate(705,413)" d="m0 0 11 1 1 4-5 6h-2l-2 4-3 3h-3l-3-7 2-1v-7l4-1z" fill="#03A7E5"/>
<path transform="translate(378,661)" d="m0 0 4 2 5 13 7 14 2 3-1 3-5-4-3-3 1-5-4-2-1-5-5-1-3-7v-6z" fill="#050452"/>
<path transform="translate(490,724)" d="m0 0v3l-8 8-11 7-5 2h-8l3-5 5-2 1-2h4l1-3 5-2 3-3 6 1v-2z" fill="#070758"/>
<path transform="translate(664,555)" d="m0 0 3 1 6 12 1 4-3 6-3 2h-9l2-1 1-4 4-4-5-10v-4z" fill="#060A6A"/>
<path transform="translate(648,462)" d="m0 0 2 1-10 6-23 11-10 5-12 5-13 6h-3v-2l10-5 9-3h3l1-3 17-8 16-8 7-3z" fill="#AEB0D7"/>
<path transform="translate(668,409)" d="m0 0 4 2 9 10 1 1v5l-6 1v2h-6l-2-9z" fill="#C7CAE6"/>
<path transform="translate(201,404)" d="m0 0h2v2l-2 1 1 5 8 7 4 2-5 4-4 4h-1l-2-7-5-5h-3l-1-3 1-2-5 1 1-2h4v-2z" fill="#0493D7"/>
<path transform="translate(661,423)" d="m0 0h1l1 15v27l-1 3-16 10h-2v-2l9-5h2l-1-4 5-7v-21l1-2z" fill="#A4A7D1"/>
<path transform="translate(353,558)" d="m0 0 2 3 3 9 6 12-1 2-2-2-3 1-1 3-6-13-3-9v-3h4z" fill="#0B1475"/>
<path transform="translate(389,169)" d="m0 0 9 1 5 1 4-1 26 8 15 6-1 2-6-1-14-5-27-7-11-3z" fill="#9496C7"/>
<path transform="translate(561,543)" d="m0 0 2 1-9 16-2 2h-11l-6 2-3 2 2-4 6-3 6-2 5-5 4-6h2l1-2z" fill="#A9ABD2"/>
<path transform="translate(541,103)" d="m0 0h7l1 1 9 1 10 5 8 2-1 3-11-3-4-3-1 2 2 1h-2v2l-9-3-10-5z" fill="#0B0B58"/>
<path transform="translate(237,414)" d="m0 0h1v33l2 10 4 5-6-2-5-3h-3l-8-1v-1h8v-2l-9-2v-2l15 1v-32z" fill="#151974"/>
<path transform="translate(720,227)" d="m0 0h18l12 3 4 4-9-2-19-2-7 2-1 6-6-1-1-2 3-5z" fill="#A3A5CF"/>
<path transform="translate(614,159)" d="m0 0 3 3 8 11 10 20 2 10-3-3-7-14-13-21-2-4h2z" fill="#9698C5"/>
<path transform="translate(587,135)" d="m0 0h5l7 7 5 4 10 13v2l-4-1-7-8-11-9-3-3z" fill="#A3A5CF"/>
<path transform="translate(307,597)" d="m0 0 4 1 7 8 2 4 10 8 6 7-4 1-12-11-7-7-6-8z" fill="#EBEDF7"/>
<path transform="translate(151,404)" d="m0 0 4 4v2h2l3 4h8l-3 5-5 1-3-1-1 2-8-9-4-7 4 2z" fill="#0E1372"/>
<path transform="translate(323,600)" d="m0 0 8 1 5 1v2h3v2l2 1-4 1-1 2h-8l-2 4-5-6 1-5h4v-2z" fill="#B6BAE0"/>
<path transform="translate(613,147)" d="m0 0 5 4 4 6 3 3 8 14 5 10v2l-5-2v-6l-4-2-3-6-1-4h-2l-7-10-3-6z" fill="#0D1575"/>
<path transform="translate(173,226)" d="m0 0h7l8 3 3 7-1 2h-3l-2-6-10-2-14 1-11 2 3-3 10-3z" fill="#A1A3CE"/>
<path transform="translate(225,349)" d="m0 0 2 3 2 8v6l-2 2-1-5-4-1v-2l-5 1-6 3-2-1 8-8 6-3z" fill="#A5A7CF"/>
<path transform="translate(575,193)" d="m0 0 2 3 2 5 3 4v3h2l4 7 9 10 1 3 4 2 6 4-2 1-10-5-11-14-6-8v-2h-3l-1-4z" fill="#474882"/>
<path transform="translate(257,483)" d="m0 0 2 3v3h2l3 10v9l-3 3-2-5-1-6-2-1-2-7 1-4z" fill="#060653"/>
<path transform="translate(152,229)" d="m0 0 3 1-4 2 13-2-2 1-1 4-4 2-11 1v2l-8 4v-4l6-7z" fill="#4F5284"/>
<path transform="translate(324,517)" d="m0 0 8 10v2h2l2 5 10 2 1 1v5l-6-2-11-7-7-11z" fill="#C5C7E5"/>
<path transform="translate(770,278)" d="m0 0h3l5 20v9l-4 5-2-13-1-16z" fill="#080754"/>
<path transform="translate(626,448)" d="m0 0 3 1-2 3-25 11-5 2h-5l-1-5h8l11-5z" fill="#ACAFD5"/>
<path transform="translate(394,617)" d="m0 0h2v2l26 2v1l-11 1v2l3 2-16-1-9-3-3-4 4 2 7 2-3-4z" fill="#121875"/>
<path transform="translate(647,336)" d="m0 0 4 2 3 9 1 10-5-2-3-3-2-7v-6z" fill="#0A0A58"/>
<path transform="translate(337,152)" d="m0 0h7v4l2 2-26 1 2-3h2v-2l2-1z" fill="#02014F"/>
<path transform="translate(579,104)" d="m0 0h8l8 3-1 2h-10l-6 3-10-1 1-3z" fill="#070755"/>
<path transform="translate(247,436)" d="m0 0 8 1 11 7-4 1-10-5-1 3 2 1v3l-6 1 2 5-4-2v-8z" fill="#ACAFD5"/>
<path transform="translate(468,505)" d="m0 0h24l12 3 6 5 8 13 1 3h-2l-6-10-5-5-10-6-24-1z" fill="#A1E9BE"/>
<path transform="translate(232,350)" d="m0 0 2 4 1 7v10l-2 2-3-1-6 4 2-4 2-3v-9l-1-6 3 3h2z" fill="#161A74"/>
<path transform="translate(526,654)" d="m0 0h2l-1 7-8 20h-2l-1-4 2-5 2-11 3-1 2-5z" fill="#0B0A56"/>
<path transform="translate(139,389)" d="m0 0h2l2 6 3-1 5 9-1 4h-3l-4-2-5-10z" fill="#0A0E6D"/>
<path transform="translate(550,542)" d="m0 0 2 1-1 6-4 5-1 2h-13l1-4 9-3 5-4z" fill="#050555"/>
<path transform="translate(562,504)" d="m0 0 1 4-1 3-5 4-10 20-4 9-4 2h-3l1 5h-2l-1-5 3-3 4-2 9-17 3-7z" fill="#A8AAD1"/>
<path transform="translate(257,473)" d="m0 0h5l5 4 4 1v2l3 1v3h-2l-1 2-8-3-1-3-5-3-1-2z" fill="#0D0E5C"/>
<path transform="translate(228,415)" d="m0 0h3l-1 14-1 1h-5l-4-2 1-5z" fill="#CCCEE9"/>
<path transform="translate(551,211)" d="m0 0h1v6l-6 9-2 2v5l4 2v3l-4-2-6-5 1-6 6-4 2-2 3-7z" fill="#039ADD"/>
<path transform="translate(584,108)" d="m0 0h8l12 9-1 5-8-6-6-3-11-1 3-2z" fill="#021277"/>
<path transform="translate(324,549)" d="m0 0 7 1 7 4v2l5-1 2 2 3 10h2l1 9-2-1-3-7-4-7-12-8-6-3z" fill="#B3B7DD"/>
<path transform="translate(637,527)" d="m0 0 4 2 10 14 6 11 2 5h-2l-6-10-5-5-4-6-3-5-2-1z" fill="#9395C6"/>
<path transform="translate(307,520)" d="m0 0 3 2v2h3l5 9 1 14 2 1-4-1-8-20z" fill="#ABADD4"/>
<path transform="translate(309,393)" d="m0 0 4 3v2l3 1 5 5 14 11 7 5-3 1-11-7-11-9-8-9z" fill="#0D0E59"/>
<path transform="translate(357,162)" d="m0 0h13l29 6 5 2-1 2-19-4-16-3-11-2z" fill="#A0A2CD"/>
<path transform="translate(631,502)" d="m0 0h6l-1 8h-1v-6l-29 10-15 5h-3v-2l14-4 11-5 9-2z" fill="#A8AAD1"/>
<path transform="translate(533,97)" d="m0 0 11 3 11 4v1h-6l-3-1h-5l-1 2-5 1-6-4 2-2h4v-2h-2z" fill="#161A74"/>
<path transform="translate(763,371)" d="m0 0 2 1-3 10-6 13-2 4h-2l1-7 4-9 3-9z" fill="#BCBFE1"/>
<path transform="translate(183,240)" d="m0 0h3l1 4h6l-4 2-7 4-2-1h-8l2-4 6-4z" fill="#0A0F72"/>
<path transform="translate(587,121)" d="m0 0 7 1 2 1v2h2l3 5 5 2 2-1v9h-2l-14-14z" fill="#0579C6"/>
<path transform="translate(143,386)" d="m0 0 5 3 7 13v3h2v4l-4-2-8-13-2-4z" fill="#C4C7E6"/>
<path transform="translate(230,371)" d="m0 0 3 1v9h3v-5h2v9l-3 4-3-3-4-2 1-12z" fill="#080856"/>
<path transform="translate(680,387)" d="m0 0 7 6 12 9 15 10 4 2-1 4-1-3-6-2-8-4-1-3-4-2v-2l-5-2-5-4-3-1-3-5z" fill="#065CB1"/>
<path transform="translate(307,275)" d="m0 0 2 1-8 20-5 17h-1v-15l3-4 1-6 3-3z" fill="#C1C3E2"/>
<path transform="translate(677,415)" d="m0 0 7 6 6 2v3l4 2 3 2v4l-5-1-8-7-7-8z" fill="#13135C"/>
<path transform="translate(233,562)" d="m0 0 1 2h9l6-1 1 4-9 2-13 1v-6l1 4h3z" fill="#474981"/>
<path transform="translate(232,456)" d="m0 0 10 5 4 6 2 1v2h3l-1 3-4-2-10-7-4-5z" fill="#0B0A56"/>
<path transform="translate(536,106)" d="m0 0 7 1 14 6 1 2-1 2-12-3-9-7z" fill="#ACAED7"/>
<path transform="translate(243,353)" d="m0 0 4 1-1 6-4 4v8l-4 2v-8l4-12z" fill="#10105B"/>
<path transform="translate(571,126)" d="m0 0 5 2h3l3-1 9 7-2 2v3l-4-2-10-7z" fill="#9496C7"/>
<path transform="translate(538,122)" d="m0 0 7 2 5 6 3 6-1 3-13-13z" fill="#05BFF4"/>
<path transform="translate(696,406)" d="m0 0 3 3-3 6-4 3-5-1 3-9z" fill="#06C0F6"/>
<path transform="translate(523,274)" d="m0 0 6 1 9 7 3 6-1 4-6-9-9-5-5 1-4 3 2-4z" fill="#07C1F7"/>
<path transform="translate(690,434)" d="m0 0 5 2-1 5-9 6-4-1 6-8z" fill="#B7BADF"/>
<path transform="translate(419,103)" d="m0 0 4 1-5 4-13 5-5 1-4 1 4-4 13-6z" fill="#06A4E3"/>
<path transform="translate(674,384)" d="m0 0 4 1v4h-2l-2 5-5 2-2-1v-5z" fill="#05C8FB"/>
<path transform="translate(426,95)" d="m0 0h5l-4 1v2l4 1-1 2-7 2h-7l2-7z" fill="#030354"/>
<path transform="translate(578,605)" d="m0 0 3 1-3 1-2 6-9 10-5 2 3-4h2l2-9 5-3z" fill="#B9BDE2"/>
<path transform="translate(240,550)" d="m0 0 4 1v2h3l2-2v4l-9 2-2 4-4 1 1-6 2-4z" fill="#484A82"/>
<path transform="translate(767,350)" d="m0 0h1v14l-3 8-4 1 2-10 3-12z" fill="#BEC1E3"/>
<path transform="translate(207,435)" d="m0 0h5l1 4 6 3 2 5h-5l-10-8z" fill="#BDC0E2"/>
<path transform="translate(258,509)" d="m0 0h2l-1 4-6 12-4 4v-2h-2l2-5 8-12z" fill="#AAADD6"/>
<path transform="translate(512,286)" d="m0 0 1 3-2 5-4 17v7l3 10-1 3-3-8-1-4v-13l4-16z" fill="#07C1F7"/>
<path transform="translate(332,159)" d="m0 0h16l16 2v1l-14 1-20-2z" fill="#A4A6CF"/>
<path transform="translate(646,535)" d="m0 0 3 1v2l4 2v2h2l5 13-4-1-8-14-2-2z" fill="#0F0F5C"/>
<path transform="translate(440,328)" d="m0 0h29l-2 2-5 2-15 1-7-3z" fill="#06BDF4"/>
<path transform="translate(640,488)" d="m0 0h3l-1 6-2 4 1-7-16 7-13 6-6 1 2-2 16-7z" fill="#424781"/>
<path transform="translate(688,397)" d="m0 0 9 5v2l3 1 1 4h-3l-2-2-7 1v-8z" fill="#03A3E3"/>
<path transform="translate(237,360)" d="m0 0h3l-4 21h-3l-1-6 2-4 1-7h2z" fill="#B3B7DA"/>
<path transform="translate(664,555)" d="m0 0 3 1 4 8v4l-4-1-3-4-3-2v-4z" fill="#080857"/>
<path transform="translate(422,496)" d="m0 0 9 2-2 2h-19l-6-2v-1z" fill="#02014E"/>
<path transform="translate(196,243)" d="m0 0h5l1 3-10 2-12 6h-2l2-4 9-5z" fill="#9B9DCA"/>
<path transform="translate(725,227)" d="m0 0h13l12 3 4 4-9-2-18-2z" fill="#9A9CCA"/>
<path transform="translate(614,510)" d="m0 0h3v2l-21 7-13 4h-2l1-3 16-4z" fill="#B6BADF"/>
<path transform="translate(163,358)" d="m0 0 3 2 3 6 5 5 3 2h16l-3 2h-16l-5-4-6-8z" fill="#B1B5DA"/>
<path transform="translate(387,265)" d="m0 0h11l1 2-11 1-5 4-3 3-4 7-1-3 5-8z" fill="#07C1F7"/>
<path transform="translate(587,446)" d="m0 0 3 1-19 11-11 5h-2v-2l17-9z" fill="#AFB2D8"/>
<path transform="translate(668,421)" d="m0 0h1l1 17v11h10l-3 2-4 2-5-1z" fill="#202377"/>
<path transform="translate(527,637)" d="m0 0h3v2h-2v2l-17 3-5 1h-9l3-2 7-1 18-4z" fill="#A8AAD1"/>
<path transform="translate(361,468)" d="m0 0 25 5 12 3v1h-8l-11-3-10-1-8-3z" fill="#B5B8DE"/>
<path transform="translate(705,250)" d="m0 0 4 1 2 3 4-2 4 3v2h5v1h-9l-1-1h-5v-2h-5l-1 4-1-5 1-2 2 1z" fill="#464781"/>
<path transform="translate(480,98)" d="m0 0h17l11 1 3 2-1 1h-6l-2-1h-16l-6-1z" fill="#06BDF4"/>
<path transform="translate(252,563)" d="m0 0h7l3 2-6 1v2l-11 2h-13v-1l18-2z" fill="#42447F"/>
<path transform="translate(323,503)" d="m0 0 3 3 8 18 5 6 3 1v2l-6-2-4-5-6-13v-3l-2-1z" fill="#A8AAD1"/>
<path transform="translate(194,246)" d="m0 0 3 1-5 3v3l-4 2-1-2h-4l-1 4-5-1 1-4v2z" fill="#4D5084"/>
<path transform="translate(167,416)" d="m0 0h10l-3 3-8 3h-8l-1-3 8-1z" fill="#0C0D5A"/>
<path transform="translate(752,231)" d="m0 0 6 2 6 7 2 6h-3l-3-6-12-6 3-1 1-1z" fill="#4E5184"/>
<path transform="translate(607,482)" d="m0 0 3 1-5 3-15 6-8 4h-3v-2l10-5 9-3z" fill="#B9BDE2"/>
<path transform="translate(649,437)" d="m0 0h4l1 20-2 5-2-1 1-3v-15l-1-2-6 1z" fill="#AEB0D7"/>
<path transform="translate(281,190)" d="m0 0h1l-1 20-2 4-2-6v-12l3-1z" fill="#9496C7"/>
<path transform="translate(331,534)" d="m0 0 5 2 9 5v1l-6 2v2l-6-2-3-3h5v-3l-4-2z" fill="#161A75"/>
<path transform="translate(677,345)" d="m0 0h1l1 7 3 3-3 7-4-1v-8z" fill="#B3B6DD"/>
<path transform="translate(718,232)" d="m0 0 8 6 2 1-1 3h-6l-7-3 4-1z" fill="#4E5083"/>
<path transform="translate(649,354)" d="m0 0h3l3 12v10l-2-3-4-15z" fill="#131774"/>
<path transform="translate(400,268)" d="m0 0 3 3 4 8 1 5v19l-2 3v-18l-3-12-3-6z" fill="#07C1F7"/>
<path transform="translate(182,231)" d="m0 0 5 1v6l3 1-3 1h-8v-4l3-1z" fill="#4F5284"/>
<path transform="translate(626,183)" d="m0 0h3l2 1 3 7 3 9-1 3-7-12-3-6z" fill="#8F91C1"/>
<path transform="translate(543,298)" d="m0 0h1v14l-4 13-6 9-1-2 7-14 2-8z" fill="#039FDF"/>
<path transform="translate(606,128)" d="m0 0 4 4 1 7h-2v2l5-4 1 3-2 7-3-4-4-1-2-5 2 1v2h2l-1-9z" fill="#07187A"/>
<path transform="translate(545,558)" d="m0 0 7 1 2-1-2 4h-11l-6 2-3 2 2-4 6-3z" fill="#BABDE2"/>
<path transform="translate(587,598)" d="m0 0h7l-4 2-11 4-11 2v-2l15-4z" fill="#1E2276"/>
<path transform="translate(361,581)" d="m0 0 6 5-1 4-2-1-1 2-5-4v-4z" fill="#030859"/>
<path transform="translate(371,311)" d="m0 0 6 12 7 7 9-1-3 3h-7l-8-7-4-8z" fill="#03A1E1"/>
<path transform="translate(237,550)" d="m0 0 1 2-6 16h-3l1-9 2-3 1 1z" fill="#A3A5CF"/>
<path transform="translate(660,437)" d="m0 0 2 2v16l-1 6-2-1v-21z" fill="#B9BDE2"/>
<path transform="translate(225,349)" d="m0 0h1v6l-7 2-5 6-5 1 6-7 5-4 3-1z" fill="#B3B7DD"/>
<path transform="translate(556,105)" d="m0 0 6 2 10 4 4 2-1 2-11-3-4-3h-2z" fill="#0A1375"/>
<path transform="translate(200,249)" d="m0 0h2v7l-6 2-2-4 2-4z" fill="#4F5284"/>
<path transform="translate(146,398)" d="m0 0 3 1 2 4-1 4h-3l-4-2v-4h3z" fill="#0A0A58"/>
<path transform="translate(738,362)" d="m0 0 1 3-10 9h-5l3-3h2v-2l5-5z" fill="#AEB0D7"/>
<path transform="translate(296,574)" d="m0 0 4 1 5 6v3l-5-1-4-6z" fill="#F6F8FD"/>
<path transform="translate(671,380)" d="m0 0h1v6l-2 2h-6l-1-4h4l1-3z" fill="#050554"/>
<path transform="translate(173,248)" d="m0 0h8l-2 4h-2v2l-3 1-3-2v-4z" fill="#040351"/>
<path transform="translate(727,230)" d="m0 0h10l-4 2 2 2v3l-3 1v-2l-6-1z" fill="#4E5184"/>
<path transform="translate(579,118)" d="m0 0 4 1 6 4 8 7-2 1-10-8-6-2z" fill="#020972"/>
<path transform="translate(631,502)" d="m0 0h6l-1 8h-1v-6l-14 5-3-1z" fill="#A6A8D0"/>
<path transform="translate(380,166)" d="m0 0h10l12 3 2 1-1 2-23-5z" fill="#A3A5CE"/>
<path transform="translate(240,540)" d="m0 0v3l-3 8-4 8h-1l1-8 5-10z" fill="#BEC0E1"/>
<path transform="translate(337,534)" d="m0 0 9 2 1 1v5l-6-2-4-4z" fill="#C8CAE7"/>
<path transform="translate(751,396)" d="m0 0 2 3-2 5-4 5-3-1 5-10z" fill="#A4A6CF"/>
<path transform="translate(566,267)" d="m0 0 4 2 5 7-1 3-11-7 3-1 2 1z" fill="#3B3D7C"/>
<path transform="translate(295,256)" d="m0 0h2l-1 5-2 4-5 1-1 2 1-5z" fill="#0F0F59"/>
<path transform="translate(524,104)" d="m0 0h5v2h2v4l3 1-2 1-10-5v-2z" fill="#020656"/>
<path transform="translate(683,409)" d="m0 0h7l-2 6-2 2-5-6z" fill="#03A4E3"/>
<path transform="translate(604,151)" d="m0 0 5 1 5 7v2l-4-1-6-7z" fill="#B0B3D8"/>
<path transform="translate(601,121)" d="m0 0 5 5 1 8-1-2-5-1-2-4 4 1v-4h-2z" fill="#03A2E2"/>
<path transform="translate(351,573)" d="m0 0 2 3 5 11-4-1-4-3 1-4-1-3z" fill="#ADB1D9"/>
<path transform="translate(307,520)" d="m0 0 5 5 2 7 2 6-1 4-6-15z" fill="#B9BDE2"/>
<path transform="translate(610,455)" d="m0 0 3 1-17 8h-4l-1-4h8z" fill="#B9BDE2"/>
<path transform="translate(340,542)" d="m0 0 5 1 2 6-5-1-3-1-1-3z" fill="#030351"/>
<path transform="translate(545,536)" d="m0 0 1 2-3 6-4 2h-3l1 5h-2l-1-5 3-3 4-2z" fill="#A7A9D0"/>
<path transform="translate(690,434)" d="m0 0 5 2-1 5-5-1-5 3 2-4zm2 2 1 2z" fill="#A9ACD3"/>
<path transform="translate(547,114)" d="m0 0 5 1 10 5-2 1-9-1-1-3h-2z" fill="#9698C8"/>
<path transform="translate(248,563)" d="m0 0 2 1v3l-12 2v-3h5v-2z" fill="#4F5284"/>
<path transform="translate(172,221)" d="m0 0 6 1 5 2 1 2-16-1z" fill="#02014E"/>
<path transform="translate(548,111)" d="m0 0 7 1 3 3-1 2-10-3-1-2z" fill="#B9BCDF"/>
<path transform="translate(504,509)" d="m0 0 4 2 8 11 3 7h-2l-6-10-7-9z" fill="#A9B5D3"/>
<path transform="translate(157,405)" d="m0 0 2 1 1 3 5 4v2h-5l-3-3v-2l-2-1h2z" fill="#A7A9D2"/>
<path transform="translate(768,340)" d="m0 0 2 2v14l-2 4-1-10v-9z" fill="#B6B9DE"/>
<path transform="translate(298,296)" d="m0 0h1l-1 10-2 7h-1v-14z" fill="#C3C5E3"/>
<path transform="translate(767,281)" d="m0 0 4 1 1 1v7h-1v-5l-3-1-19-1v-1z" fill="#AEB0D6"/>
<path transform="translate(702,243)" d="m0 0 11 2 5 3-2 2-5-3-7-1-4 1z" fill="#9597C7"/>
<path transform="translate(185,228)" d="m0 0 4 2 2 6-1 2h-3l-2-6-3-2z" fill="#9597C7"/>
<path transform="translate(406,707)" d="m0 0 4 4v2l3 1 7 8v2l-4-2-9-11z" fill="#B9887A"/>
<path transform="translate(702,407)" d="m0 0 7 2 9 5-1 4-1-3-6-2-8-4z" fill="#066BBC"/>
<path transform="translate(553,260)" d="m0 0h4v2l3 1-2 4-5-1-1-4z" fill="#4F5284"/>
<path transform="translate(220,444)" d="m0 0h5v2h3v3h-8l-2-2 2-1z" fill="#A8AAD2"/>
<path transform="translate(372,504)" d="m0 0 3 1-7 3-5 7-2-1 5-8z" fill="#A2D0CA"/>
<path transform="translate(135,360)" d="m0 0 2 3 3 12-1 2-3-5-1-4z" fill="#C5C7E5"/>
<path transform="translate(528,336)" d="m0 0h2v2l-5 3h-6l-4-3h9z" fill="#07C1F7"/>
<path transform="translate(618,238)" d="m0 0 10 2 9 2 1 2-8-1-10-3z" fill="#474882"/>
<path transform="translate(291,239)" d="m0 0h5v2h2l1-2 3 3-3 2h-5z" fill="#42437F"/>
<path transform="translate(756,388)" d="m0 0 2 1-2 6-2 4h-2l1-7z" fill="#B3B6DD"/>
<path transform="translate(207,364)" d="m0 0 2 1-1 3-7 4-8 1 2-2 10-5z" fill="#B1B4DA"/>
<path transform="translate(760,236)" d="m0 0 4 2 4 5 1 6-5-2 1-2-3-6z" fill="#40427E"/>
<path transform="translate(602,131)" d="m0 0 4 1 2-1v9h-2l-4-6z" fill="#0584CE"/>
<path transform="translate(526,97)" d="m0 0h7v2h2v2l-11-1v-2z" fill="#02014F"/>
<path transform="translate(259,545)" d="m0 0v3l-7 5-2-1 1-4z" fill="#474882"/>
<path transform="translate(483,479)" d="m0 0h8l-4 3h-12l1-2z" fill="#B3B6DC"/>
<path transform="translate(297,584)" d="m0 0 9 3 3 2-3 1h-7z" fill="#141A75"/>
<path transform="translate(628,527)" d="m0 0 1 3-5 13h-1l1-9 1-2h2z" fill="#A4A7D1"/>
<path transform="translate(258,509)" d="m0 0h2l-1 4-4 8-1-3 1-5z" fill="#9EA0CC"/>
<path transform="translate(130,353)" d="m0 0h2l1 2v10l-2 1-1-5z" fill="#080957"/>
<path transform="translate(773,330)" d="m0 0 3 1 1 7-2 2-2-1z" fill="#02014E"/>
<path transform="translate(596,286)" d="m0 0h6v6l-6-2z" fill="#464781"/>
<path transform="translate(740,245)" d="m0 0 5 2 2 3-1 1h-5l-3-5z" fill="#4E5084"/>
<path transform="translate(726,229)" d="m0 0 1 3-3 1v2l-5-1v-3z" fill="#3E407D"/>
<path transform="translate(448,178)" d="m0 0 9 2v2l7 1v1h-7l-8-4z" fill="#03187D"/>
<path transform="translate(241,536)" d="m0 0h3l1 2-6 11-1-2 2-6v-3z" fill="#A3A6D0"/>
<path transform="translate(346,531)" d="m0 0 3 1-1 8-2-3-3-1-1-3z" fill="#A9ABD4"/>
<path transform="translate(589,489)" d="m0 0 3 1h-2l-1 3-7 3h-3v-2z" fill="#AFB2D8"/>
<path transform="translate(257,473)" d="m0 0h5l1 5-4 1-3-4z" fill="#060655"/>
<path transform="translate(252,437)" d="m0 0 4 1 10 6-4 1-6-3z" fill="#B2B6DB"/>
<path transform="translate(649,437)" d="m0 0h4v7l-3-3-6 1z" fill="#AAADD3"/>
<path transform="translate(224,385)" d="m0 0 1 3-6 7h-5l2-3h2v-2l4-2z" fill="#058FD4"/>
<path transform="translate(139,383)" d="m0 0h2l4 9v3h-2l-4-7z" fill="#11125E"/>
<path transform="translate(237,360)" d="m0 0h3l-2 7-2 5-2-1 1-7h2z" fill="#57CDCE"/>
<path transform="translate(539,319)" d="m0 0 1 2-6 11-2-4v-3l5-1z" fill="#07C1F7"/>
<path transform="translate(321,238)" d="m0 0 2 1-13 13-2-1 8-9z" fill="#D3D5EB"/>
<path transform="translate(348,554)" d="m0 0 4 1 1 6-3 2-2-4z" fill="#02014E"/>
<path transform="translate(669,438)" d="m0 0h1v11h10l-3 2-7 1-1-1z" fill="#4A4D82"/>
<path transform="translate(647,436)" d="m0 0h5l-4 3-7 6-2-1 2-4 5-3z" fill="#B1B5DA"/>
<path transform="translate(225,384)" d="m0 0 5 1 2 4-3 2-4-4z" fill="#0AC7F9"/>
<path transform="translate(196,243)" d="m0 0h5l1 3-12 1 3-3z" fill="#AAADD4"/>
<path transform="translate(158,228)" d="m0 0 5 1-2 2-11 2 3-3z" fill="#9496C7"/>
<path transform="translate(349,160)" d="m0 0h8l7 1v1l-14 1z" fill="#9EA0CC"/>
<path transform="translate(496,148)" d="m0 0 2 1-5 4-9 5-2-1z" fill="#03A9E7"/>
<path transform="translate(562,512)" d="m0 0h2l-1 5-5 2-1 2v-4h2l2-4z" fill="#C9CBE7"/>
<path transform="translate(648,462)" d="m0 0 2 1-10 6h-3v-2l7-4z" fill="#B0B3D9"/>
<path transform="translate(266,445)" d="m0 0 6 2 8 4-4 1-10-5z" fill="#B0B3D9"/>
<path transform="translate(587,121)" d="m0 0 7 1 2 1v2l2 1-8-1z" fill="#0397DA"/>
<path transform="translate(211,441)" d="m0 0 7 2 3 4h-5l-5-4z" fill="#C5C7E5"/>
<path transform="translate(238,366)" d="m0 0h3l1 6-4 2z" fill="#0B0B58"/>
<path transform="translate(357,162)" d="m0 0h13v2l3 1-11-1-5-1z" fill="#B2B6DC"/>
</svg>
